<svg width="1920" height="1080" viewBox="0 0 1920 1080" xmlns="http://www.w3.org/2000/svg"><rect width="1920" height="1080" fill="#35682b"/><path d="M 0,1080 C 0,1080 0,180 0,180 C 87.64871794871797,179.25128205128203 175.29743589743595,178.5025641025641 279,173 C 382.70256410256405,167.4974358974359 502.4589743589743,157.24102564102566 608,158 C 713.5410256410257,158.75897435897434 804.8666666666668,170.53333333333333 916,197 C 1027.1333333333332,223.46666666666667 1158.074358974359,264.625641025641 1265,247 C 1371.925641025641,229.37435897435896 1454.8358974358976,152.96410256410257 1560,132 C 1665.1641025641024,111.03589743589744 1792.5820512820512,145.5179487179487 1920,180 C 1920,180 1920,1080 1920,1080 Z" fill="#fdf5f0" opacity="0.09999999999999999"/><path d="M 0,1080 C 0,1080 0,360 0,360 C 69.52820512820514,383.79999999999995 139.0564102564103,407.59999999999997 261,388 C 382.9435897435897,368.40000000000003 557.302564102564,305.40000000000003 669,320 C 780.697435897436,334.59999999999997 829.7333333333335,426.79999999999995 923,422 C 1016.2666666666665,417.20000000000005 1153.7641025641026,315.40000000000003 1260,310 C 1366.2358974358974,304.59999999999997 1441.2102564102563,395.6 1546,420 C 1650.7897435897437,444.4 1785.394871794872,402.2 1920,360 C 1920,360 1920,1080 1920,1080 Z" fill="#fdf5f0" opacity="0.19999999999999998"/><path d="M 0,1080 C 0,1080 0,540 0,540 C 135.9,531.8948717948717 271.8,523.7897435897436 377,506 C 482.2,488.2102564102564 556.7,460.73589743589747 638,475 C 719.3,489.26410256410253 807.4000000000001,545.2666666666667 904,549 C 1000.5999999999999,552.7333333333333 1105.7,504.1974358974359 1230,491 C 1354.3,477.8025641025641 1497.8000000000002,499.94358974358977 1616,514 C 1734.1999999999998,528.0564102564102 1827.1,534.0282051282052 1920,540 C 1920,540 1920,1080 1920,1080 Z" fill="#fdf5f0" opacity="0.3"/><path d="M 0,1080 C 0,1080 0,720 0,720 C 96.28717948717946,693.4717948717948 192.57435897435892,666.9435897435898 299,675 C 405.4256410256411,683.0564102564102 521.9897435897436,725.697435897436 627,730 C 732.0102564102564,734.302564102564 825.4666666666667,700.2666666666665 944,684 C 1062.5333333333333,667.7333333333335 1206.1435897435897,669.2358974358975 1305,668 C 1403.8564102564103,666.7641025641025 1457.9589743589745,662.7897435897436 1553,671 C 1648.0410256410255,679.2102564102564 1784.0205128205127,699.6051282051283 1920,720 C 1920,720 1920,1080 1920,1080 Z" fill="#fdf5f0" opacity="0.39999999999999997"/><path d="M 0,1080 C 0,1080 0,900 0,900 C 117.07948717948719,909.2846153846153 234.15897435897438,918.5692307692308 337,923 C 439.8410256410256,927.4307692307692 528.4435897435898,927.0076923076923 625,931 C 721.5564102564102,934.9923076923077 826.0666666666665,943.4000000000002 923,942 C 1019.9333333333335,940.5999999999998 1109.2897435897437,929.3923076923077 1235,909 C 1360.7102564102563,888.6076923076923 1522.774358974359,859.0307692307692 1643,856 C 1763.225641025641,852.9692307692308 1841.6128205128205,876.4846153846154 1920,900 C 1920,900 1920,1080 1920,1080 Z" fill="#fdf5f0" opacity="0.49999999999999994"/></svg>