<svg id="visual" viewBox="0 0 900 600" width="900" height="600" xmlns="http://www.w3.org/2000/svg" xmlns:xlink="http://www.w3.org/1999/xlink" version="1.1"><rect x="0" y="0" width="900" height="600" fill="#FBAE3C"></rect><defs><linearGradient id="grad1_0" x1="33.3%" y1="0%" x2="100%" y2="100%"><stop offset="20%" stop-color="#457f3b" stop-opacity="1"></stop><stop offset="80%" stop-color="#457f3b" stop-opacity="1"></stop></linearGradient></defs><defs><linearGradient id="grad1_1" x1="33.3%" y1="0%" x2="100%" y2="100%"><stop offset="20%" stop-color="#457f3b" stop-opacity="1"></stop><stop offset="80%" stop-color="#6d8f33" stop-opacity="1"></stop></linearGradient></defs><defs><linearGradient id="grad1_2" x1="33.3%" y1="0%" x2="100%" y2="100%"><stop offset="20%" stop-color="#999c2c" stop-opacity="1"></stop><stop offset="80%" stop-color="#6d8f33" stop-opacity="1"></stop></linearGradient></defs><defs><linearGradient id="grad1_3" x1="33.3%" y1="0%" x2="100%" y2="100%"><stop offset="20%" stop-color="#999c2c" stop-opacity="1"></stop><stop offset="80%" stop-color="#c8a72d" stop-opacity="1"></stop></linearGradient></defs><defs><linearGradient id="grad1_4" x1="33.3%" y1="0%" x2="100%" y2="100%"><stop offset="20%" stop-color="#fbae3c" stop-opacity="1"></stop><stop offset="80%" stop-color="#c8a72d" stop-opacity="1"></stop></linearGradient></defs><defs><linearGradient id="grad2_0" x1="0%" y1="0%" x2="66.7%" y2="100%"><stop offset="20%" stop-color="#457f3b" stop-opacity="1"></stop><stop offset="80%" stop-color="#457f3b" stop-opacity="1"></stop></linearGradient></defs><defs><linearGradient id="grad2_1" x1="0%" y1="0%" x2="66.7%" y2="100%"><stop offset="20%" stop-color="#6d8f33" stop-opacity="1"></stop><stop offset="80%" stop-color="#457f3b" stop-opacity="1"></stop></linearGradient></defs><defs><linearGradient id="grad2_2" x1="0%" y1="0%" x2="66.7%" y2="100%"><stop offset="20%" stop-color="#6d8f33" stop-opacity="1"></stop><stop offset="80%" stop-color="#999c2c" stop-opacity="1"></stop></linearGradient></defs><defs><linearGradient id="grad2_3" x1="0%" y1="0%" x2="66.7%" y2="100%"><stop offset="20%" stop-color="#c8a72d" stop-opacity="1"></stop><stop offset="80%" stop-color="#999c2c" stop-opacity="1"></stop></linearGradient></defs><defs><linearGradient id="grad2_4" x1="0%" y1="0%" x2="66.7%" y2="100%"><stop offset="20%" stop-color="#c8a72d" stop-opacity="1"></stop><stop offset="80%" stop-color="#fbae3c" stop-opacity="1"></stop></linearGradient></defs><g transform="translate(900, 0)"><path d="M0 486.7C-43.4 481 -86.8 475.2 -120.4 449.2C-153.9 423.1 -177.4 376.8 -199.5 345.5C-221.6 314.3 -242.1 298.2 -288.5 288.5C-334.9 278.7 -407 275.3 -421.5 243.4C-436 211.4 -392.8 150.9 -394.1 105.6C-395.4 60.3 -441.1 30.1 -486.7 0L0 0Z" fill="#e1ab33"></path><path d="M0 389.4C-34.7 384.8 -69.5 380.2 -96.3 359.3C-123.1 338.5 -141.9 301.4 -159.6 276.4C-177.3 251.5 -193.7 238.6 -230.8 230.8C-267.9 223 -325.6 220.3 -337.2 194.7C-348.8 169.1 -314.3 120.7 -315.3 84.5C-316.3 48.2 -352.8 24.1 -389.4 0L0 0Z" fill="#b0a22b"></path><path d="M0 292C-26.1 288.6 -52.1 285.1 -72.2 269.5C-92.3 253.9 -106.5 226.1 -119.7 207.3C-132.9 188.6 -145.3 178.9 -173.1 173.1C-200.9 167.2 -244.2 165.2 -252.9 146C-261.6 126.8 -235.7 90.6 -236.5 63.4C-237.2 36.2 -264.6 18.1 -292 0L0 0Z" fill="#82962f"></path><path d="M0 194.7C-17.4 192.4 -34.7 190.1 -48.1 179.7C-61.5 169.2 -71 150.7 -79.8 138.2C-88.6 125.7 -96.9 119.3 -115.4 115.4C-133.9 111.5 -162.8 110.1 -168.6 97.3C-174.4 84.6 -157.1 60.4 -157.6 42.2C-158.1 24.1 -176.4 12.1 -194.7 0L0 0Z" fill="#598737"></path><path d="M0 97.3C-8.7 96.2 -17.4 95 -24.1 89.8C-30.8 84.6 -35.5 75.4 -39.9 69.1C-44.3 62.9 -48.4 59.6 -57.7 57.7C-67 55.7 -81.4 55.1 -84.3 48.7C-87.2 42.3 -78.6 30.2 -78.8 21.1C-79.1 12.1 -88.2 6 -97.3 0L0 0Z" fill="#457f3b"></path></g><g transform="translate(0, 600)"><path d="M0 -486.7C47.5 -487.9 95 -489.1 122.2 -455.9C149.3 -422.7 156.2 -355.1 195.5 -338.6C234.8 -322.2 306.5 -356.9 344.2 -344.2C381.8 -331.5 385.4 -271.2 389.7 -225C394 -178.8 399.1 -146.5 415.3 -111.3C431.6 -76.1 459.2 -38.1 486.7 0L0 0Z" fill="#e1ab33"></path><path d="M0 -389.4C38 -390.4 76 -391.3 97.7 -364.7C119.5 -338.2 125 -284 156.4 -270.9C187.8 -257.7 245.2 -285.5 275.3 -275.3C305.5 -265.2 308.3 -217 311.8 -180C315.2 -143 319.2 -117.2 332.3 -89C345.3 -60.9 367.4 -30.4 389.4 0L0 0Z" fill="#b0a22b"></path><path d="M0 -292C28.5 -292.8 57 -293.5 73.3 -273.6C89.6 -253.6 93.7 -213 117.3 -203.2C140.9 -193.3 183.9 -214.1 206.5 -206.5C229.1 -198.9 231.2 -162.7 233.8 -135C236.4 -107.3 239.4 -87.9 249.2 -66.8C259 -45.7 275.5 -22.8 292 0L0 0Z" fill="#82962f"></path><path d="M0 -194.7C19 -195.2 38 -195.7 48.9 -182.4C59.7 -169.1 62.5 -142 78.2 -135.4C93.9 -128.9 122.6 -142.8 137.7 -137.7C152.7 -132.6 154.2 -108.5 155.9 -90C157.6 -71.5 159.6 -58.6 166.1 -44.5C172.7 -30.4 183.7 -15.2 194.7 0L0 0Z" fill="#598737"></path><path d="M0 -97.3C9.5 -97.6 19 -97.8 24.4 -91.2C29.9 -84.5 31.2 -71 39.1 -67.7C47 -64.4 61.3 -71.4 68.8 -68.8C76.4 -66.3 77.1 -54.2 77.9 -45C78.8 -35.8 79.8 -29.3 83.1 -22.3C86.3 -15.2 91.8 -7.6 97.3 0L0 0Z" fill="#457f3b"></path></g></svg>